<svg xmlns="http://www.w3.org/2000/svg" xmlns:cc="http://web.resource.org/cc/" xmlns:svg="http://www.w3.org/2000/svg" xmlns:xlink="http://www.w3.org/1999/xlink" id="svg2270" width="14" height="14" version="1.0"><defs id="defs2272"><linearGradient id="linearGradient7029"><stop style="stop-color:#cfcfcf;stop-opacity:1" id="stop7031" offset="0"/><stop style="stop-color:#cfcfcf;stop-opacity:0" id="stop7033" offset="1"/></linearGradient><linearGradient id="linearGradient17794"><stop style="stop-color:#917373;stop-opacity:1" id="stop17798" offset="0"/><stop id="stop8006" offset=".381" style="stop-color:#8d5757;stop-opacity:1"/><stop style="stop-color:#862323;stop-opacity:1" id="stop17796" offset="1"/></linearGradient><linearGradient id="linearGradient24732" x1="472.422" x2="461.392" y1="436.796" y2="424.951" gradientUnits="userSpaceOnUse" xlink:href="#linearGradient17794"/><linearGradient id="linearGradient2438" x1="472.422" x2="461.392" y1="436.796" y2="424.951" gradientUnits="userSpaceOnUse" xlink:href="#linearGradient17794"/><radialGradient id="radialGradient6052" cx="466.736" cy="431.197" r="9.31" fx="466.736" fy="431.197" gradientTransform="matrix(1,0,0,1.0057859,0,-2.4948735)" gradientUnits="userSpaceOnUse" xlink:href="#linearGradient17794"/><linearGradient id="linearGradient7035" x1="6.75" x2="6.75" y1=".5" y2="12.5" gradientUnits="userSpaceOnUse" xlink:href="#linearGradient7029"/></defs><metadata id="metadata2275"/><g id="layer1"><g id="g25843" transform="matrix(0.7931251,0,0,0.7931251,-372.13374,-408.22195)"><path style="fill:url(#radialGradient6052);fill-opacity:1;stroke:#872727;stroke-width:1.43637741;stroke-miterlimit:4;stroke-dasharray:none;stroke-opacity:1" id="path22737" d="M 475.32704 431.19708 A 8.5913839 8.6452484 0 1 1 458.14427,431.19708 A 8.5913839 8.6452484 0 1 1 475.32704 431.19708 z" transform="matrix(0.8805346,0,0,0.8750503,66.41784,145.57686)"/><path style="opacity:1;fill:url(#linearGradient7035);fill-opacity:1;stroke:none;stroke-width:1;stroke-miterlimit:4;stroke-dasharray:none;stroke-opacity:1" id="path6058" d="M 12.5 6.5 A 5.75 6 0 1 1 1,6.5 A 5.75 6 0 1 1 12.5 6.5 z" transform="matrix(0.9867408,0,0,0.6304178,470.73423,515.01579)"/></g></g></svg>